# xmcd CD database file
#
# Track frame offsets:
#	150
#	15633
#	29331
#	46135
#	64350
#	81813
#	101404
#	118559
#	132120
#	150012
#	164858
#
# Disc length: 2437 seconds
#
# Revision: 0
# Processed by: cddbd v1.5.2PL0 Copyright (c) Steve Scherf et al.
# Submitted via: CDex 1.51
#
DISCID=8209830b
DTITLE=Cagle, Chris - Icon
DYEAR=2013
DGENRE=Country
TTITLE0=Country by the Grace of God
TTITLE1=My LOve Goes On and On
TTITLE2=What A Beautiful Day
TTITLE3=I Breathe In, I Breathe Out
TTITLE4=Miss Me Baby
TTITLE5=Wal-Mart Parking Lot
TTITLE6=Laredo
TTITLE7=What Kinda Gone
TTITLE8=No Love Songs
TTITLE9=My Life's Been A Country Song
TTITLE10=Chicks Dig It
EXTD=YEAR: 2013
EXTT0=
EXTT1=
EXTT2=
EXTT3=
EXTT4=
EXTT5=
EXTT6=
EXTT7=
EXTT8=
EXTT9=
EXTT10=
PLAYORDER=
